<?xml version="1.0" encoding="UTF-8" standalone="no"?>
<!DOCTYPE svg PUBLIC "-//W3C//DTD SVG 1.1//EN" "http://www.w3.org/Graphics/SVG/1.1/DTD/svg11.dtd">
<svg width="100%" height="100%" viewBox="0 0 405 405" version="1.1" xmlns="http://www.w3.org/2000/svg" xmlns:xlink="http://www.w3.org/1999/xlink" xml:space="preserve" xmlns:serif="http://www.serif.com/" style="fill-rule:evenodd;clip-rule:evenodd;stroke-linejoin:round;stroke-miterlimit:2;">
    <g transform="matrix(1,0,0,1,-296.958242,-309.652327)">
        <g id="MID" transform="matrix(0.722852,0,0,0.722852,141.631079,141.862279)">
            <g>
                <g>
                    <g transform="matrix(1.755462,0,0,0.532323,-252.964471,414.534223)">
                        <rect x="286.446" y="512" width="19.938" height="65.762"/>
                    </g>
                    <g transform="matrix(1.755462,0,0,0.532323,-217.964471,379.527667)">
                        <rect x="286.446" y="512" width="19.938" height="65.762"/>
                    </g>
                    <g transform="matrix(1.755462,0,0,0.532323,-182.964471,344.521112)">
                        <rect x="286.446" y="512" width="19.938" height="65.762"/>
                    </g>
                    <g transform="matrix(1.755462,0,0,0.532323,-217.964471,309.527893)">
                        <path d="M286.446,577.762L286.446,380.476L326.322,380.476L326.322,446.238L306.384,446.238L306.384,577.762L286.446,577.762Z"/>
                    </g>
                    <g transform="matrix(1.755462,0,0,0.532323,-147.964471,274.521338)">
                        <path d="M326.322,577.762L286.446,577.762L286.446,512L306.384,512L306.384,446.238L326.322,446.238L326.322,380.476L346.259,380.476L346.259,512L326.322,512L326.322,577.762Z"/>
                    </g>
                    <g transform="matrix(1.755462,0,0,0.532323,-42.964471,169.611934)">
                        <rect x="286.446" y="512" width="19.938" height="65.762"/>
                    </g>
                    <g transform="matrix(1.755462,0,0,0.532323,-7.964471,134.605379)">
                        <rect x="286.446" y="512" width="19.938" height="65.762"/>
                    </g>
                    <g transform="matrix(1.755462,0,0,0.532323,27.035529,99.598824)">
                        <rect x="286.446" y="512" width="19.938" height="65.762"/>
                    </g>
                    <g transform="matrix(1.755462,0,0,0.532323,62.035529,64.592268)">
                        <rect x="286.446" y="512" width="19.938" height="65.762"/>
                    </g>
                    <g transform="matrix(1.755462,0,0,0.532323,97.035529,29.585713)">
                        <rect x="286.446" y="512" width="19.938" height="65.762"/>
                    </g>
                    <g transform="matrix(1.755462,0,0,0.532323,132.035529,-5.420842)">
                        <rect x="286.446" y="512" width="19.938" height="65.762"/>
                    </g>
                    <g transform="matrix(1.755462,0,0,0.532323,167.035529,-40.427397)">
                        <path d="M326.322,577.762L286.446,577.762L286.446,512L346.259,512L346.259,709.285L326.322,709.285L326.322,577.762Z"/>
                    </g>
                    <g transform="matrix(1.755462,0,0,0.532323,202.035529,64.592268)">
                        <rect x="286.446" y="512" width="19.938" height="65.762"/>
                    </g>
                    <g transform="matrix(1.755462,0,0,0.532323,167.035529,99.598824)">
                        <rect x="286.446" y="512" width="19.938" height="65.762"/>
                    </g>
                    <g transform="matrix(1.755462,0,0,0.532323,132.035529,134.605379)">
                        <rect x="286.446" y="512" width="19.938" height="65.762"/>
                    </g>
                    <g transform="matrix(1.755462,0,0,0.532323,97.035529,169.611934)">
                        <rect x="286.446" y="512" width="19.938" height="65.762"/>
                    </g>
                    <g transform="matrix(1.755462,0,0,0.532323,62.035529,204.618489)">
                        <rect x="286.446" y="512" width="19.938" height="65.762"/>
                    </g>
                    <g transform="matrix(1.755462,0,0,0.532323,27.035529,239.450388)">
                        <rect x="286.446" y="512" width="19.938" height="65.762"/>
                    </g>
                    <g transform="matrix(1.755462,0,0,0.532323,-147.964471,379.527667)">
                        <rect x="286.446" y="512" width="19.938" height="65.762"/>
                    </g>
                    <g transform="matrix(1.755462,0,0,0.532323,-112.964471,414.571699)">
                        <path d="M346.259,445.637L346.417,576.814L286.446,577.762L286.446,512L326.322,511.93L326.322,445.637L346.259,445.637Z"/>
                    </g>
                    <g transform="matrix(1.755462,0,0,0.532323,-77.964471,344.238597)">
                        <path d="M286.446,577.762L286.446,446.238L306.384,446.238L306.384,380.476L346.042,380.476L346.042,446.238L326.322,446.238L326.322,512L306.384,512L306.384,577.762L286.446,577.762Z"/>
                    </g>
                    <g transform="matrix(1.755462,0,0,0.532323,-182.964471,414.534223)">
                        <rect x="286.446" y="512" width="19.938" height="65.762"/>
                    </g>
                    <g transform="matrix(1.755462,0,0,0.532323,-217.964471,449.540778)">
                        <rect x="286.446" y="512" width="19.938" height="65.762"/>
                    </g>
                    <g transform="matrix(1.755462,0,0,0.532323,-287.938366,449.540778)">
                        <path d="M326.307,643.524L286.431,643.524L286.431,577.762L286.446,577.762L286.446,512L306.384,512L306.384,577.762L326.307,577.762L326.307,643.524Z"/>
                    </g>
                </g>
                <g>
                    <g transform="matrix(1.755462,0,0,0.532323,-252.964471,449.578254)">
                        <rect x="286.446" y="512" width="19.938" height="65.762" style="fill:url(#_Linear1);"/>
                    </g>
                    <g transform="matrix(1.755462,0,0,0.532323,-217.964471,414.571699)">
                        <rect x="286.446" y="512" width="19.938" height="65.762" style="fill:url(#_Linear2);"/>
                    </g>
                    <g transform="matrix(1.755462,0,0,0.532323,-182.964471,379.527667)">
                        <rect x="286.446" y="512" width="19.938" height="65.762" style="fill:url(#_Linear3);"/>
                    </g>
                    <g transform="matrix(1.755462,0,0,0.532323,-147.964471,344.521112)">
                        <path d="M266.508,512L266.508,380.476L286.446,380.476L286.446,446.238L326.322,446.238L326.322,577.231L346.259,577.231L346.259,643.524L306.384,643.524L306.384,577.762L286.446,577.762L286.446,512L266.508,512Z" style="fill:url(#_Linear4);"/>
                    </g>
                </g>
                <g>
                    <g transform="matrix(1.755462,0,0,0.532323,-77.964471,274.225487)">
                        <rect x="286.446" y="512" width="19.938" height="65.762" style="fill:url(#_Linear5);"/>
                    </g>
                    <g transform="matrix(1.755462,0,0,0.532323,-42.964471,239.450388)">
                        <path d="M286.446,512L286.338,512L286.338,446.238L306.275,446.238L306.384,380.476L326.322,380.476L326.322,314.715L346.259,314.715L346.259,248.953L366.197,248.953L366.197,183.191L386.135,183.191L386.135,117.429L406.073,117.429L406.073,51.667L445.948,51.667L445.948,183.191L426.011,183.191L426.011,248.953L406.073,248.953L406.073,314.715L386.135,314.715L386.135,380.476L366.197,380.804L366.197,446.566L346.259,446.566L346.259,512L326.322,512L326.322,577.762L286.446,577.762L286.446,512Z" style="fill:url(#_Linear6);"/>
                    </g>
                </g>
            </g>
        </g>
    </g>
    <defs>
        <linearGradient id="_Linear1" x1="0" y1="0" x2="1" y2="0" gradientUnits="userSpaceOnUse" gradientTransform="matrix(-38.440509,529.638079,-160.606587,-126.766639,379.494646,132.572515)"><stop offset="0" style="stop-color:rgb(241,89,58);stop-opacity:1"/><stop offset="1" style="stop-color:rgb(193,34,1);stop-opacity:1"/></linearGradient>
        <linearGradient id="_Linear2" x1="0" y1="0" x2="1" y2="0" gradientUnits="userSpaceOnUse" gradientTransform="matrix(-38.440509,529.638079,-160.606587,-126.766639,359.556876,198.334327)"><stop offset="0" style="stop-color:rgb(241,89,58);stop-opacity:1"/><stop offset="1" style="stop-color:rgb(193,34,1);stop-opacity:1"/></linearGradient>
        <linearGradient id="_Linear3" x1="0" y1="0" x2="1" y2="0" gradientUnits="userSpaceOnUse" gradientTransform="matrix(-38.440509,529.638079,-160.606587,-126.766639,339.619106,264.16654)"><stop offset="0" style="stop-color:rgb(241,89,58);stop-opacity:1"/><stop offset="1" style="stop-color:rgb(193,34,1);stop-opacity:1"/></linearGradient>
        <linearGradient id="_Linear4" x1="0" y1="0" x2="1" y2="0" gradientUnits="userSpaceOnUse" gradientTransform="matrix(-38.440509,529.638079,-160.606587,-126.766639,319.681335,329.928352)"><stop offset="0" style="stop-color:rgb(241,89,58);stop-opacity:1"/><stop offset="1" style="stop-color:rgb(193,34,1);stop-opacity:1"/></linearGradient>
        <linearGradient id="_Linear5" x1="0" y1="0" x2="1" y2="0" gradientUnits="userSpaceOnUse" gradientTransform="matrix(-351.729895,1279.103714,-387.873324,-1159.912236,578.798737,-181.597141)"><stop offset="0" style="stop-color:white;stop-opacity:1"/><stop offset="1" style="stop-color:rgb(179,179,179);stop-opacity:1"/></linearGradient>
        <linearGradient id="_Linear6" x1="0" y1="0" x2="1" y2="0" gradientUnits="userSpaceOnUse" gradientTransform="matrix(-351.729895,1279.103714,-387.873324,-1159.912236,558.860966,-116.270133)"><stop offset="0" style="stop-color:white;stop-opacity:1"/><stop offset="1" style="stop-color:rgb(179,179,179);stop-opacity:1"/></linearGradient>
    </defs>
</svg>
